<svg width="50" height="46" viewBox="0 0 50 46" fill="none" xmlns="http://www.w3.org/2000/svg">
<path d="M7.38022 13.9738C6.12334 14.8802 5.7887 28.2537 9.14088 28.6139C12.4931 28.974 23.0287 22.66 23.0287 22.66C23.0287 22.66 8.63711 13.0674 7.38022 13.9738Z" fill="black"/>
<path d="M9.28424 18.1877C8.2361 18.9389 7.87556 29.957 10.6538 30.2417C13.432 30.5265 22.2098 25.2875 22.2098 25.2875C22.2098 25.2875 10.3324 17.4365 9.28424 18.1877Z" fill="#A8A8A8"/>
<path d="M9.28424 18.1877C8.2361 18.9389 7.87556 29.957 10.6538 30.2417C13.432 30.5265 22.2098 25.2875 22.2098 25.2875C22.2098 25.2875 10.3324 17.4365 9.28424 18.1877Z" fill="#FDC8C8" fill-opacity="0.32"/>
<path d="M42.62 13.9738C43.8769 14.8802 44.2115 28.2537 40.8594 28.6139C37.5072 28.974 26.9715 22.66 26.9715 22.66C26.9715 22.66 41.3631 13.0674 42.62 13.9738Z" fill="black"/>
<path d="M41.1913 18.1877C42.2395 18.9389 42.6 29.957 39.8218 30.2417C37.0436 30.5265 28.2658 25.2875 28.2658 25.2875C28.2658 25.2875 40.1432 17.4365 41.1913 18.1877Z" fill="#A8A8A8"/>
<path d="M41.1913 18.1877C42.2395 18.9389 42.6 29.957 39.8218 30.2417C37.0436 30.5265 28.2658 25.2875 28.2658 25.2875C28.2658 25.2875 40.1432 17.4365 41.1913 18.1877Z" fill="#FDC8C8" fill-opacity="0.32"/>
<ellipse cx="25.0466" cy="31.5203" rx="17.778" ry="14.2421" fill="black"/>
<line x1="31.513" y1="36.5848" x2="46.8508" y2="32.9089" stroke="black" stroke-width="0.982212"/>
<line x1="31.5766" y1="38.2629" x2="47.2641" y2="36.6305" stroke="black" stroke-width="0.982212"/>
<line x1="30.5957" y1="37.6325" x2="45.6455" y2="42.3509" stroke="black" stroke-width="0.982212"/>
<line y1="-0.491106" x2="15.7722" y2="-0.491106" transform="matrix(-0.972461 -0.233065 -0.233065 0.972461 18.6343 37.0624)" stroke="black" stroke-width="0.982212"/>
<line y1="-0.491106" x2="15.7722" y2="-0.491106" transform="matrix(-0.994629 -0.1035 -0.1035 0.994629 18.6343 38.7513)" stroke="black" stroke-width="0.982212"/>
<line y1="-0.491106" x2="15.7722" y2="-0.491106" transform="matrix(-0.954201 0.299165 0.299165 0.954201 19.813 38.1011)" stroke="black" stroke-width="0.982212"/>
<path d="M23.1262 33.3865C23.1605 33.6436 23.1799 33.9061 23.1799 34.1726C23.1797 37.4271 20.5419 40.065 17.2874 40.0652C14.0327 40.0652 11.394 37.4272 11.3938 34.1726C11.3938 33.9061 11.4132 33.6436 11.4475 33.3865H14.2434C14.1788 33.6376 14.1438 33.9013 14.1438 34.1726C14.144 35.9083 15.5516 37.3152 17.2874 37.3152C19.023 37.315 20.4297 35.9082 20.4299 34.1726C20.4299 33.9013 20.3959 33.6376 20.3313 33.3865H23.1262Z" fill="#FCD200"/>
<line x1="10.6079" y1="32.4043" x2="23.7695" y2="32.4043" stroke="#FCD200" stroke-width="0.392885"/>
<line x1="10.0889" y1="30.9604" x2="11.6605" y2="32.5632" stroke="#FCD200" stroke-width="0.196442"/>
<line x1="11.8822" y1="31.0067" x2="12.2175" y2="32.4329" stroke="#FCD200" stroke-width="0.196442"/>
<line x1="13.3634" y1="31.0638" x2="12.8609" y2="32.3977" stroke="#FCD200" stroke-width="0.196442"/>
<path d="M27.0764 33.3865C27.0421 33.6436 27.0227 33.9061 27.0227 34.1726C27.0229 37.4271 29.6608 40.065 32.9153 40.0652C36.1699 40.0652 38.8087 37.4272 38.8088 34.1726C38.8088 33.9061 38.7894 33.6436 38.7551 33.3865H35.9602C36.0248 33.6376 36.0588 33.9013 36.0588 34.1726C36.0586 35.9083 34.651 37.3152 32.9153 37.3152C31.1797 37.315 29.7729 35.9082 29.7727 34.1726C29.7727 33.9013 29.8067 33.6376 29.8713 33.3865H27.0764Z" fill="#FCD200"/>
<line y1="-0.196442" x2="13.1616" y2="-0.196442" transform="matrix(-1 0 0 1 39.5947 32.6007)" stroke="#FCD200" stroke-width="0.392885"/>
<line y1="-0.0982212" x2="2.24468" y2="-0.0982212" transform="matrix(-0.700118 0.714027 0.714027 0.700118 40.1841 31.0292)" stroke="#FCD200" stroke-width="0.196442"/>
<line y1="-0.0982212" x2="1.4651" y2="-0.0982212" transform="matrix(-0.228839 0.973464 0.973464 0.228839 38.416 31.0292)" stroke="#FCD200" stroke-width="0.196442"/>
<line y1="-0.0982212" x2="1.42539" y2="-0.0982212" transform="matrix(0.352511 0.935808 0.935808 -0.352511 36.9314 31.0292)" stroke="#FCD200" stroke-width="0.196442"/>
<path d="M22.4094 39.871L25.1314 37.4585L27.9157 39.8312" stroke="white" stroke-width="0.785769" stroke-linecap="square"/>
<ellipse cx="16.736" cy="4.95992" rx="16.736" ry="4.95992" transform="matrix(0.939739 0.341893 -0.424799 0.905287 15.1262 11.1479)" fill="#722FA5"/>
<path d="M42.7748 5.03221L41.9219 7.99045L40.7683 6.83273L40.8303 6.0373L41.6823 7.08233L41.8065 5.49049L39.4528 4.81117L39.2808 23.3579L20.3593 15.0843L39.4787 2.10675L42.7748 5.03221Z" fill="#722FA5"/>
<mask id="mask0_41_883" style="mask-type:alpha" maskUnits="userSpaceOnUse" x="12" y="2" width="33" height="27">
<ellipse cx="16.736" cy="4.95992" rx="16.736" ry="4.95992" transform="matrix(0.939739 0.341893 -0.424799 0.905287 15.1262 11.1479)" fill="#722FA5"/>
<path d="M42.7748 5.03221L41.9219 7.99045L40.7683 6.83273L40.8303 6.0373L41.6823 7.08233L41.8065 5.49049L39.4528 4.81117L39.2808 23.3579L20.3593 15.0843L39.4787 2.10675L42.7748 5.03221Z" fill="#722FA5"/>
</mask>
<g mask="url(#mask0_41_883)">
<g filter="url(#filter1_d_41_883)">
<path fill-rule="evenodd" clip-rule="evenodd" d="M21.3655 13.7926C22.6804 15.929 25.298 17.9309 28.561 19.0443C33.8111 20.8356 38.7425 19.6501 39.5749 16.3968C39.6865 15.9603 39.7156 15.5085 39.6749 15.0494C40.4764 16.3509 40.7951 17.7021 40.4802 18.934C39.6481 22.1874 34.7174 23.3726 29.4672 21.5814C24.9206 20.0301 21.6267 16.7554 21.3655 13.7926Z" fill="#FCD200"/>
</g>
</g>
<defs>
<filter id="filter1_d_41_883" x="20.5797" y="13.7926" width="20.8062" height="10.1954" filterUnits="userSpaceOnUse" color-interpolation-filters="sRGB">
<feFlood flood-opacity="0" result="BackgroundImageFix"/>
<feColorMatrix in="SourceAlpha" type="matrix" values="0 0 0 0 0 0 0 0 0 0 0 0 0 0 0 0 0 0 127 0" result="hardAlpha"/>
<feOffset dy="0.785769"/>
<feGaussianBlur stdDeviation="0.392885"/>
<feComposite in2="hardAlpha" operator="out"/>
<feColorMatrix type="matrix" values="0 0 0 0 0 0 0 0 0 0 0 0 0 0 0 0 0 0 0.22 0"/>
<feBlend mode="normal" in2="BackgroundImageFix" result="effect1_dropShadow_41_883"/>
<feBlend mode="normal" in="SourceGraphic" in2="effect1_dropShadow_41_883" result="shape"/>
</filter>
</defs>
</svg>
